<?xml version="1.0" encoding="UTF-8"?>
<svg width="87px" height="55px" viewBox="0 0 87 55" version="1.1" xmlns="http://www.w3.org/2000/svg" xmlns:xlink="http://www.w3.org/1999/xlink">
    <!-- Generator: Sketch 56.3 (81716) - https://sketch.com -->
    <title>min-01 copy</title>
    <desc>Created with Sketch.</desc>
    <g id="Merchat-subscription" stroke="none" stroke-width="1" fill="none" fill-rule="evenodd">
        <g id="min-01-copy">
            <path d="M25.104,1.75 L17.811,20.39 M38.996,1.75 L46.292,20.39" id="Shape" stroke="#4D4D4D" stroke-width="3.5" stroke-linecap="round"></path>
            <polyline id="Path" stroke="#4D4D4D" stroke-width="3.5" stroke-linecap="round" stroke-linejoin="round" points="9.745 13.66 1.75 13.66 8.857 44.21 27.976 44.21 34.859 44.21 53.976 44.21 61.084 13.66 53.09 13.66"></polyline>
            <path d="M74.339,41.72 C74.339,48.781 66.094,54.504 55.924,54.504 C45.754,54.504 37.509,48.78 37.509,41.72 C37.509,34.66 45.754,28.935 55.924,28.935 C66.094,28.935 74.339,34.659 74.339,41.72" id="Path" fill="#FFFFFF" fill-rule="nonzero"></path>
            <path d="M57.837,37.996 C56.339,37.996 55.191,38.61 54.227,39.737 C53.652,38.631 52.565,37.996 51.13,37.996 C49.549,37.996 48.605,38.838 47.887,39.761 L47.887,39.638 C47.887,38.777 47.191,38.079 46.33,38.079 C45.469,38.079 44.77,38.777 44.77,39.638 L44.773,39.638 L44.773,47.761 C44.773,48.624 45.471,49.319 46.332,49.319 C47.194,49.319 47.892,48.623 47.892,47.761 L47.892,43.062 C47.892,41.586 48.608,40.829 49.777,40.829 C50.948,40.829 51.603,41.589 51.603,43.062 L51.603,47.761 C51.603,48.624 52.303,49.319 53.161,49.319 C54.019,49.319 54.719,48.623 54.719,47.761 L54.719,43.062 C54.719,41.586 55.437,40.829 56.607,40.829 C57.775,40.829 58.432,41.589 58.432,43.062 L58.432,47.761 C58.432,48.624 59.13,49.319 59.99,49.319 C60.849,49.319 61.5490048,48.623 61.5490048,47.761 L61.5490048,42.038 C61.552,39.391 60.156,37.996 57.837,37.996" id="Path" fill="#4D4D4D" fill-rule="nonzero"></path>
            <path d="M65.952,34.119 C64.968,34.119 64.21,34.673 64.21,35.577 L64.21,35.617 C64.21,36.519 64.968,37.095 65.952,37.095 C66.936,37.095 67.696,36.52 67.696,35.617 L67.696,35.577 C67.696,34.673 66.937,34.119 65.952,34.119" id="Path" fill="#4D4D4D" fill-rule="nonzero"></path>
            <path d="M65.952,38.078 C65.091,38.078 64.394,38.778 64.394,39.638 L64.394,47.763 C64.394,48.625 65.091,49.32 65.952,49.32 C66.813,49.32 67.5100011,48.625 67.5100011,47.763 L67.5100011,39.638 C67.511,38.776 66.813,38.078 65.952,38.078" id="Path" fill="#4D4D4D" fill-rule="nonzero"></path>
            <path d="M76.781,37.996 C75.2,37.996 74.278,38.838 73.561,39.761 L73.561,39.638 C73.561,38.777 72.863,38.079 72.004,38.079 C71.144,38.079 70.445,38.777 70.445,39.638 L70.446,39.638 L70.446,47.761 C70.446,48.624 71.144,49.319 72.005,49.319 C72.865,49.319 73.563,48.623 73.563,47.761 L73.563,43.062 C73.563,41.586 74.322,40.829 75.511,40.829 C76.701,40.829 77.397,41.589 77.397,43.062 L77.397,47.761 C77.397,48.624 78.097,49.319 78.957,49.319 C79.815,49.319 80.514,48.623 80.514,47.761 L80.514,42.078 C80.514,39.555 79.14,37.996 76.781,37.996" id="Path" fill="#4D4D4D" fill-rule="nonzero"></path>
            <path d="M84.758,45.794 C83.731,45.794 82.972,46.554 82.972,47.536 L82.972,47.576 C82.972,48.562 83.732,49.318 84.758,49.318 C85.782,49.318 86.543,48.559 86.543,47.576 L86.543,47.536 C86.543,46.554 85.782,45.794 84.758,45.794" id="Path" fill="#4D4D4D" fill-rule="nonzero"></path>
            <rect id="Rectangle" x="0" y="0" width="86.543" height="54.504"></rect>
        </g>
    </g>
</svg>